{"title":"Fast.Five.2011.NEW.HQ.720p.VIDEO.TS.XviD.AC3.Hive-CM8-WOZRXYU","uid":6476869,"size":1894309865,"categoryP":"video","categoryS":"hd___movies","magnet":"?xt=urn:btih:b3448cd0152eba5b0af1044bf4959bf1ca0b4f28&amp;dn=Fast.Five.2011.NEW.HQ.720p.VIDEO.TS.XviD.AC3.Hive-CM8-WOZRXYU&amp;tr=udp%3A%2F%2Ftracker.openbittorrent.com%3A80&amp;tr=udp%3A%2F%2Fopen.demonii.com%3A1337&amp;tr=udp%3A%2F%2Ftracker.coppersurfer.tk%3A6969&amp;tr=udp%3A%2F%2Fexodus.desync.com%3A6969","seeders":1,"leechers":0,"uploader":"Test_Verify","files":3,"time":1308339952,"description":"Fast.and.Furious.5.Rio.Heist.2011.NEW.HQ.720p.VIDEO.TS.XviD.AC3.Hive-CM8-WOZRXYU\nFast.Five.2011.NEW.HQ.720p.VIDEO.TS.XviD.AC3.Hive-CM8-WOZRXYU\n\n\n &lt;a href=&quot; http://www.imdb.com/title/tt1596343/&quot; rel=&quot;nofollow&quot; target=&quot;_NEW&quot;&gt; http://www.imdb.com/title/tt1596343/&lt;/a&gt;\n\nDominic and his crew find themselves on the wrong side of the law once again as they try to switch lanes between a ruthless drug lord and a relentless federal agent.\n\nDirector: Justin Lin\nWriters: Chris Morgan, Gary Scott Thompson (characters)\nStars: Vin Diesel, Paul Walker and Dwayne Johnson\n\n\ninfo:\n========================\n\n\nVideo: 720x304 @bitrate 1900 2pass\nAudio: English AC3 2.0 Stereo\nSample: yes 3 included, daylight,dark and action parts\nSubtitle:Romanian\n\nGeneral\nFormat: AVI\nFormat/Info: Audio Video Interleave\nFile size: 1.76 GiB\nDuration: 1h 56mn\nOverall bit rate: 2 167 Kbps\nWriting application: Nandub v1.0rc2\nWriting library: Nandub build 1853/release\n\nVideo\nID: 0\nFormat: MPEG-4 Visual\nFormat profile: Advanced Simple@L5\nFormat settings, BVOP: 2\nFormat settings, QPel: Yes\nFormat settings, GMC: No warppoints\nFormat settings, Matrix: Default (H.263)\nMuxing mode: Packed bitstream\nCodec ID: XVID\nCodec ID/Hint: XviD\nDuration: 1h 56mn\nBit rate: 1 901 Kbps\nWidth: 720 pixels\nHeight: 304 pixels\nDisplay aspect ratio: 2.35:1\nFrame rate: 25.000 fps\nColor space: YUV\nChroma subsampling: 4:2:0\nBit depth: 8 bits\nScan type: Progressive\nCompression mode: Lossy\nBits/(Pixel*Frame): 0.347\nStream size: 1.55 GiB (88%)\nWriting library: XviD 1.2.1 (UTC 2008-12-04)\n\nAudio\nID: 1\nFormat: AC-3\nFormat/Info: Audio Coding 3\nMode extension: CM (complete main)\nCodec ID: 2000\nDuration: 1h 56mn\nBit rate mode: Constant\nBit rate: 256 Kbps\nChannel(s): 2 channels\nChannel positions: Front: L R\nSampling rate: 48.0 KHz\nBit depth: 16 bits\nCompression mode: Lossy\nStream size: 213 MiB (12%)\nAlignment: Split accross interleaves\nInterleave, duration: 40 ms (1.00 video frame)\nInterleave, preload duration: 500 ms\n\n\n\n\n\n\n","torrent":{"xt":"urn:btih:b3448cd0152eba5b0af1044bf4959bf1ca0b4f28","amp;dn":"Fast.Five.2011.NEW.HQ.720p.VIDEO.TS.XviD.AC3.Hive-CM8-WOZRXYU","amp;tr":["udp%3A%2F%2Ftracker.openbittorrent.com%3A80","udp%3A%2F%2Fopen.demonii.com%3A1337","udp%3A%2F%2Ftracker.coppersurfer.tk%3A6969","udp%3A%2F%2Fexodus.desync.com%3A6969"],"infoHash":"b3448cd0152eba5b0af1044bf4959bf1ca0b4f28","infoHashBuffer":{"type":"Buffer","data":[179,68,140,208,21,46,186,91,10,241,4,75,244,149,155,241,202,11,79,40]},"announce":[],"urlList":[]}}